<?xml version="1.0" encoding="UTF-8" standalone="no"?><svg xmlns:android="http://schemas.android.com/apk/res/android" height="74" width="74" xmlns="http://www.w3.org/2000/svg">
  <path d="M69,61H5a3,3 0,0 1,-3 -3V16a3,3 0,0 1,3 -3H69a3,3 0,0 1,3 3V58A3,3 0,0 1,69 61ZM5,15a1,1 0,0 0,-1 1V58a1,1 0,0 0,1 1H69a1,1 0,0 0,1 -1V16a1,1 0,0 0,-1 -1Z" fill="#000000" fill-opacity="1.0"/>
  <path d="M65,56H9a2,2 0,0 1,-2 -2V20a2,2 0,0 1,2 -2H65a2,2 0,0 1,2 2V54A2,2 0,0 1,65 56ZM9,20V54H65V20Z" fill="#000000" fill-opacity="1.0"/>
  <path d="M66,52a1,1 0,0 1,-0.792 -0.389L49,30.635 32.792,51.611a1,1 0,0 1,-1.583 -1.223l17,-22a1.036,1.036 0,0 1,1.583 0l17,22A1,1 0,0 1,66 52Z" fill="#000000" fill-opacity="1.0"/>
  <path d="M8,52a1,1 0,0 1,-0.747 -1.665l16,-18A1,1 0,0 1,24 32h0a1,1 0,0 1,0.748 0.338l11.57,13.09a1,1 0,0 1,-1.5 1.324L24,34.508 8.748,51.665A1,1 0,0 1,8 52Z" fill="#000000" fill-opacity="1.0"/>
  <path d="M35,34a5,5 0,1 1,5 -5A5.006,5.006 0,0 1,35 34ZM35,26a3,3 0,1 0,3 3A3,3 0,0 0,35 26Z" fill="#000000" fill-opacity="1.0"/>
</svg>