<?xml version="1.0" encoding="UTF-8" standalone="no"?><svg xmlns:android="http://schemas.android.com/apk/res/android" height="22.933" width="31.575" xmlns="http://www.w3.org/2000/svg">
  <path d="M23.12,18.5679a0.3,0.3 0,0 1,-0.051 -0.005l-20.457,-3.791a2.614,2.614 0,0 1,-2.612 -2.582L-0.0001,6.3779a2.614,2.614 0,0 1,2.612 -2.582l20.457,-3.791a0.278,0.278 0,0 1,0.226 0.057,0.267 0.267,0 0,1 0.1,0.207v18.03a0.267,0.267 0,0 1,-0.1 0.207A0.281,0.281 0,0 1,23.12 18.5679ZM22.845,0.5939 L2.6899,4.3289a0.294,0.294 0,0 1,-0.051 0.005,2.069 2.069,0 0,0 -2.089,2.044v5.812a2.069,2.069 0,0 0,2.089 2.044,0.294 0.294,0 0,1 0.051,0.005l20.155,3.735Z" fill="#070909"/>
  <path d="M5.912,22.9329h-0.416a1.412,1.412 0,0 1,-1.425 -1.394v-6.989l3.265,0.684v6.3A1.411,1.411 0,0 1,5.912 22.9329ZM4.62,15.2179v6.324a0.866,0.866 0,0 0,0.875 0.856h0.416a0.866,0.866 0,0 0,0.874 -0.856v-5.87Z" fill="#070909"/>
  <path d="M26.355,4.5239a0.278,0.278 0,0 1,-0.194 -0.079,0.263 0.263,0 0,1 0,-0.38l3.441,-3.369a0.28,0.28 0,0 1,0.389 0,0.265 0.265,0 0,1 0,0.38l-3.442,3.369A0.278,0.278 0,0 1,26.355 4.5239Z" fill="#070909"/>
  <path d="M31.3,10.2179h-4.266a0.269,0.269 0,1 1,0 -0.538h4.266a0.269,0.269 0,1 1,0 0.538Z" fill="#070909"/>
  <path d="M30.379,18.9949a0.28,0.28 0,0 1,-0.195 -0.079l-3.733,-3.653a0.266,0.266 0,0 1,0 -0.381,0.279 0.279,0 0,1 0.389,0l3.733,3.653a0.266,0.266 0,0 1,0 0.381A0.28,0.28 0,0 1,30.379 18.9949Z" fill="#070909"/>
</svg>